<?xml version="1.0" encoding="utf-8"?>
<!-- Generator: Adobe Illustrator 16.0.4, SVG Export Plug-In . SVG Version: 6.00 Build 0)  -->
<!DOCTYPE svg PUBLIC "-//W3C//DTD SVG 1.1//EN" "http://www.w3.org/Graphics/SVG/1.1/DTD/svg11.dtd">
<svg version="1.1" id="Layer_1" xmlns="http://www.w3.org/2000/svg" xmlns:xlink="http://www.w3.org/1999/xlink" x="0px" y="0px"
	 width="624.918px" height="650.62px" viewBox="0 0 624.918 650.62" enable-background="new 0 0 624.918 650.62"
	 xml:space="preserve">
<g>
	<g>
		<g>
			<g>
				<linearGradient id="SVGID_1_" gradientUnits="userSpaceOnUse" x1="56.1797" y1="190.2041" x2="568.7382" y2="486.1299">
					<stop  offset="0" style="stop-color:#2C79E6;stop-opacity:0.2"/>
					<stop  offset="0.0411" style="stop-color:#2782E5;stop-opacity:0.283"/>
					<stop  offset="0.3962" style="stop-color:#00CAE0"/>
					<stop  offset="1" style="stop-color:#2C79E6;stop-opacity:0.2"/>
				</linearGradient>
				<path opacity="0.8" fill="none" stroke="url(#SVGID_1_)" stroke-width="36.4872" stroke-miterlimit="10" d="M590.095,338.165
					c0,153.336-124.303,277.641-277.631,277.641c-153.338,0-277.641-124.305-277.641-277.641
					c0-153.329,124.303-277.635,277.641-277.635C465.792,60.53,590.095,184.836,590.095,338.165z"/>
				<linearGradient id="SVGID_2_" gradientUnits="userSpaceOnUse" x1="91.521" y1="559.1074" x2="533.4021" y2="117.2263">
					<stop  offset="0.0028" style="stop-color:#2C9A96;stop-opacity:0.6"/>
					<stop  offset="0.3909" style="stop-color:#C9FFFF"/>
					<stop  offset="0.704" style="stop-color:#1B95BD;stop-opacity:0.5646"/>
					<stop  offset="1" style="stop-color:#05ECF3;stop-opacity:0.7856"/>
				</linearGradient>
				<path opacity="0.7" fill="none" stroke="url(#SVGID_2_)" stroke-width="3.5806" stroke-miterlimit="10" d="M623.128,338.165
					c0,171.584-139.09,310.664-310.664,310.664S1.79,509.749,1.79,338.165c0-171.574,139.1-310.664,310.674-310.664
					S623.128,166.591,623.128,338.165z"/>
			</g>
			<g>
				<g>
					<g>
						<defs>
							<path id="SVGID_394_" d="M581.95,337.886c0,145.119-119.477,262.76-266.871,262.76
								c-147.373,0-266.861-117.641-266.861-262.76c0-145.118,119.488-262.762,266.861-262.762
								C462.474,75.124,581.95,192.768,581.95,337.886z"/>
						</defs>
						<clipPath id="SVGID_3_">
							<use xlink:href="#SVGID_394_"  overflow="visible"/>
						</clipPath>
					</g>
					<g>
						<linearGradient id="SVGID_4_" gradientUnits="userSpaceOnUse" x1="454.5664" y1="180.4419" x2="358.5757" y2="14.1811">
							<stop  offset="0" style="stop-color:#20998A"/>
							<stop  offset="0.0441" style="stop-color:#219B90"/>
							<stop  offset="0.4634" style="stop-color:#27ADC2"/>
							<stop  offset="0.7811" style="stop-color:#2BB8E1"/>
							<stop  offset="0.9579" style="stop-color:#2CBCED"/>
						</linearGradient>
						<path fill="url(#SVGID_4_)" stroke="#FFFFFF" stroke-width="3.4255" stroke-miterlimit="10" d="M503.665,97.312
							c0,52.792-43.475,95.603-97.104,95.603c-53.607,0-97.086-42.811-97.086-95.603c0-52.802,43.479-95.6,97.086-95.6
							C460.19,1.713,503.665,44.511,503.665,97.312z"/>
						<g>
							<path fill="#D6ECE4" d="M463.351,75.308l-55.023,54.193l-10.346,10.177c-1.373,1.345-3.273,2.097-5.166,2.097
								c-1.912,0-3.803-0.752-5.166-2.097l-10.352-10.177l-27.516-27.094c-1.373-1.349-2.123-3.221-2.123-5.095
								c0-1.872,0.75-3.747,2.123-5.082l10.336-10.188c1.373-1.342,3.271-2.094,5.172-2.094c1.902,0,3.807,0.752,5.17,2.094
								l22.355,22.079l49.869-49.171c1.363-1.354,3.254-2.107,5.166-2.107c1.895,0,3.795,0.753,5.168,2.107l10.332,10.182
								c1.385,1.336,2.145,3.211,2.145,5.095C465.495,72.079,464.735,73.954,463.351,75.308z"/>
						</g>
					</g>
				</g>
			</g>
		</g>
		<g>
			<defs>
				<path id="SVGID_405_" d="M312.444,75.772c-143.848,0-260.879,117.033-260.879,260.888
					c0,143.849,117.031,260.879,260.879,260.879c143.85,0,260.879-117.03,260.879-260.879
					C573.323,192.806,456.294,75.772,312.444,75.772z"/>
			</defs>
			<clipPath id="SVGID_5_">
				<use xlink:href="#SVGID_405_"  overflow="visible"/>
			</clipPath>
			<path clip-path="url(#SVGID_5_)" fill="#9CA6C6" d="M327.044,627.838c0,0,65.828-125.239,48.619-149.88
				c-17.197-24.619-37.039,25.186-44.971,49.591C322.763,551.967,314.718,601.054,327.044,627.838z"/>
			<linearGradient id="SVGID_6_" gradientUnits="userSpaceOnUse" x1="302.5518" y1="490.2456" x2="502.0586" y2="490.2456">
				<stop  offset="0" style="stop-color:#77D7F5;stop-opacity:0.9"/>
				<stop  offset="0.23" style="stop-color:#83DBF7;stop-opacity:0.9231"/>
				<stop  offset="0.6484" style="stop-color:#A4E7FB;stop-opacity:0.9651"/>
				<stop  offset="0.9963" style="stop-color:#C4F2FF"/>
			</linearGradient>
			<path opacity="0.8" clip-path="url(#SVGID_5_)" fill="url(#SVGID_6_)" d="M410.097,467.261
				c1.445-20.285,7.605-48.346,12.312-87.671c1.871-15.599,5.795-44.19,5.795-44.19s27.309,41.074,33.328,40.572
				c6.021-0.508,15.217,0.729,15.217,0.729s13.227,64.039,14.496,81.146c0,0,9.648,38.601,8.75,82.467
				c-0.697,33.432,10.369,48.105-12.59,76.696c-8.098,10.095-18.961,28.609-38.562,28.07c-5.387-0.147-24.322-0.577-28.291-1.448
				c-7.912-1.354-17.041-4.22-33.348-11.492c-22.412-10.025-72.904-31.196-81.039-48.887c-8.135-17.688-0.908-68.746,5.73-78.041
				c6.645-9.313,30.428-41.381,48.209-40.12c0,0,38.396,36.224,44.193,83.319C405.022,511.464,408.649,487.55,410.097,467.261z"/>
			<g clip-path="url(#SVGID_5_)">
				<g>
					<g>
						<path fill="#08B3A6" d="M403.382,544.618c0,0-0.333,1.539-0.852,3.938c-0.564,2.388-1.104,5.69-1.602,9.188
							c-0.427,3.51-0.742,7.239-0.707,10.47c-0.028,1.616,0.042,3.098,0.112,4.363c0.044,1.271,0.163,2.304,0.218,3.046
							c0.022,0.264,0.055,0.51,0.096,0.743c0.002,0.216,0.011,0.438,0.036,0.678c0.069,0.625,0.19,1.586,0.409,2.778
							c0.243,1.187,0.534,2.613,0.855,4.185c0.638,3.142,1.563,6.835,2.454,10.357c0.982,3.509,1.914,6.847,2.752,9.275
							c0.795,2.432,1.309,4.004,1.309,4.004s-0.32-1.52-0.819-3.889c-0.237-1.187-0.571-2.576-0.838-4.11
							c-0.269-1.534-0.56-3.197-0.858-4.905c-1.087-6.856-2.02-14.48-2.295-17.385c-0.025-0.258-0.061-0.5-0.104-0.729
							c-0.007-0.212-0.012-0.428-0.033-0.666c-0.115-1.236-0.536-3.762-0.832-6.893c-0.07-0.786-0.144-1.608-0.22-2.456
							c-0.057-0.85-0.073-1.727-0.115-2.619c-0.116-1.789-0.056-3.633-0.042-5.449c-0.027-1.823,0.168-3.587,0.243-5.239
							c0.071-1.654,0.235-3.162,0.381-4.444C403.205,546.282,403.382,544.618,403.382,544.618z"/>
					</g>
				</g>
			</g>
			<linearGradient id="SVGID_7_" gradientUnits="userSpaceOnUse" x1="237.1797" y1="503.4375" x2="399.2256" y2="503.4375">
				<stop  offset="0" style="stop-color:#0856C9"/>
				<stop  offset="0.199" style="stop-color:#2270D2"/>
				<stop  offset="0.6217" style="stop-color:#65B2E9"/>
				<stop  offset="1" style="stop-color:#A5F2FF"/>
			</linearGradient>
			<path clip-path="url(#SVGID_5_)" fill="url(#SVGID_7_)" d="M243.956,379.352c24.352,5.455,35.225,3.034,82.822,40.089
				c18.217,14.195,24.637,28.98,37.668,39.852c2.906,2.433,34.779,50.002,34.779,50.002s-21.014,5.787-53.617,73.169
				c-14.574,30.114-18.564,45.375-18.564,45.375s-38.02-19.882-48.209-37.72c-10.182-17.838-32.189-123.289-35.008-158.959
				C240.991,395.509,230.331,376.308,243.956,379.352z"/>
			<g clip-path="url(#SVGID_5_)">
				<defs>
					<path id="XMLID_12_" d="M71.687,263.062c0,0,13.377,53.664,10.17,74.147c-3.191,20.493-20.801,28.368-20.801,28.368
						s-14.404,7.875-32.012,11.028s-8.006,25.211-8.006,25.211s89.627,72.485,142.447,63.044
						c52.811-9.462,43.209-3.154,48.006-31.522c4.805-28.368-7.998-29.941-7.998-29.941l-6.975-75.733L71.687,263.062z"/>
				</defs>
				<linearGradient id="XMLID_2_" gradientUnits="userSpaceOnUse" x1="115.4976" y1="465.7085" x2="115.4976" y2="263.0615">
					<stop  offset="0.0037" style="stop-color:#C4F2FF"/>
					<stop  offset="0.3501" style="stop-color:#A4F2FB;stop-opacity:0.9651"/>
					<stop  offset="0.7666" style="stop-color:#83F3F7;stop-opacity:0.9231"/>
					<stop  offset="0.9955" style="stop-color:#77F3F5;stop-opacity:0.9"/>
				</linearGradient>
				<use xlink:href="#XMLID_12_"  overflow="visible" opacity="0.8" fill="url(#XMLID_2_)"/>
				<clipPath id="XMLID_9_">
					<use xlink:href="#XMLID_12_"  overflow="visible" opacity="0.8"/>
				</clipPath>
				<path clip-path="url(#XMLID_9_)" fill="#80E0FF" d="M128.503,325.249c0,0-5.854,16.502-9.311,33.506
					c-3.461,17.004,4.609,22.672-3.461,31.744c-8.053,9.072-35.688,12.471-35.688,12.471l-27.199-39.945l7.627-21.273l16.512-54.717
					L128.503,325.249z"/>
			</g>
			<g clip-path="url(#SVGID_5_)">
				<defs>
					<path id="XMLID_11_" d="M62.765,361.075c0,0-5.393,0.279-9.92,1.949c-2.576,0.967-6.797,5.086-17.947,10.574
						c-5.658,2.784-16.984,7.791-28.303,11.69c-11.307,3.903-34.471,13.988-41.252,19.562c-6.799,5.574-10.805,51.206-14.201,61.232
						c-3.385,10.019,15.277,74.103,20.381,91.928c5.082,17.832,4.182,25.076,0.787,38.443c-3.396,13.377-6.754,37.178-10.148,62.809
						s-4.73,44.553-8.699,69.946c-5.799,37.11-20.289,88.504,16.352,103.772c10.957,4.574,37.18,30.168,94.49,46.76
						c51.473,14.91,127.77,47.023,184.689,22.859c45.938-19.527,47.266-23.736,56.4-34.57c6.051-7.184,11.049-14.754,13.506-23.008
						c15.578-52.125,0.625-89.293,0.057-93.672c-0.861-6.529-10.854-54.681-8.59-98.452c2.633-50.86-1.279-87.671-7.504-123.327
						c-6.225-35.657-14.334-53.508-23.18-94.914c-6.449-30.113-18.117-50.716-40.158-57.487
						c-26.115-8.025-39.842-14.163-39.842-14.163c1.77,16.884,3.219,32.54,2.457,42.763c-0.787,10.574-8.803,20.195-23.516,21.872
						c-14.721,1.672-61.586,7.515-85.445-27.863C65.741,359.118,70.118,362.19,62.765,361.075z"/>
				</defs>
				<linearGradient id="XMLID_17_" gradientUnits="userSpaceOnUse" x1="135.8403" y1="911.3271" x2="135.8403" y2="361.0752">
					<stop  offset="0" style="stop-color:#A5F2FF;stop-opacity:0.8"/>
					<stop  offset="0.1494" style="stop-color:#A1EEFD;stop-opacity:0.8299"/>
					<stop  offset="0.3102" style="stop-color:#94E1F9;stop-opacity:0.862"/>
					<stop  offset="0.4763" style="stop-color:#7ECBF2;stop-opacity:0.8953"/>
					<stop  offset="0.6461" style="stop-color:#60ADE7;stop-opacity:0.9292"/>
					<stop  offset="0.8187" style="stop-color:#3987DA;stop-opacity:0.9637"/>
					<stop  offset="0.9914" style="stop-color:#0B59CA;stop-opacity:0.9983"/>
					<stop  offset="1" style="stop-color:#0856C9"/>
				</linearGradient>
				<use xlink:href="#XMLID_11_"  overflow="visible" fill="url(#XMLID_17_)"/>
				<clipPath id="XMLID_18_">
					<use xlink:href="#XMLID_11_"  overflow="visible"/>
				</clipPath>
				<linearGradient id="SVGID_8_" gradientUnits="userSpaceOnUse" x1="-61.4229" y1="638.2681" x2="259.3408" y2="638.2681">
					<stop  offset="0" style="stop-color:#214570"/>
					<stop  offset="0.233" style="stop-color:#274B77;stop-opacity:0.9767"/>
					<stop  offset="0.5646" style="stop-color:#375B89;stop-opacity:0.9435"/>
					<stop  offset="0.9536" style="stop-color:#5274A8;stop-opacity:0.9046"/>
					<stop  offset="1" style="stop-color:#5678AC;stop-opacity:0.9"/>
				</linearGradient>
				<path clip-path="url(#XMLID_18_)" fill="url(#SVGID_8_)" d="M3.386,358.61c0,0-1.791-11.949,21.029,31.018
					c22.809,42.967,33.236,97.014,68.229,145.748c32.316,44.993,68.438,13.666,90.258,51.746
					c21.828,38.089,16.865,76.178,3.969,93.766c-12.893,17.58-24.795,59.562,9.918,86.908c34.711,27.348,73.6,70.797,59.639,136.436
					c-4.576,21.477-94.621,20.559-170.27-4.869c-66.16-22.242-162.066-75.898-145.74-78.793c3.516-0.629,6.43-81.093,6.43-81.093
					l9.916-356.449L3.386,358.61z"/>
			</g>
			<g clip-path="url(#SVGID_5_)">
				<g>
					<g>
						<path fill="#FFFFFF" d="M207.183,377.903c0,0,0.283,1.501,0.788,4.171c0.489,2.669,1.205,6.504,1.84,11.203
							c0.615,4.69,1.252,10.277,0.937,16.312c-0.173,3.022-0.663,6.094-2.069,8.972c-1.249,3.03-2.818,5.951-4.618,8.799
							c-3.584,5.699-8.487,10.75-14.104,14.466c-5.608,3.74-11.869,6.14-17.849,7.356c-5.982,1.26-11.661,1.473-16.463,1.227
							c-4.812-0.236-8.77-0.891-11.559-1.429c-0.993-0.213-1.93-0.375-2.81-0.58c-0.799-0.2-1.624-0.406-2.526-0.633
							c-4.667-1.227-14.412-4.109-25.226-10.232c-5.409-3.022-11.058-6.82-16.473-11.26c-5.414-4.44-10.583-9.53-15.115-14.97
							c-4.551-5.426-8.434-11.209-11.562-16.821c-3.106-5.627-5.433-11.087-7.09-15.835c-1.654-4.753-2.671-8.781-3.291-11.602
							c-0.321-1.408-0.499-2.525-0.654-3.278c-0.145-0.755-0.222-1.155-0.222-1.155s0.27,1.514,0.75,4.209
							c0.553,2.68,1.416,6.527,2.879,11.098c1.461,4.567,3.551,9.844,6.37,15.342c2.791,5.512,6.396,11.187,10.578,16.646
							c2.116,2.711,4.368,5.372,6.738,7.93c2.395,2.534,4.876,4.991,7.451,7.289c5.153,4.589,10.587,8.62,15.901,11.903
							c10.61,6.646,20.622,10.208,26.181,11.797c0.993,0.271,1.927,0.552,2.826,0.754c0.815,0.204,1.649,0.413,2.576,0.645
							c2.417,0.515,6.153,1.258,10.896,1.642c4.733,0.4,10.491,0.407,16.713-0.602c6.209-0.994,12.873-3.146,18.964-6.772
							c6.095-3.604,11.515-8.711,15.483-14.599c1.999-2.934,3.672-6.027,5.071-9.144c0.667-1.575,1.351-3.124,1.843-4.695
							c0.426-1.597,0.689-3.204,0.823-4.793c0.276-3.179,0.172-6.252-0.052-9.132c-0.217-2.882-0.546-5.58-0.917-8.049
							c-0.73-4.94-1.539-8.975-2.105-11.785C207.509,379.488,207.183,377.903,207.183,377.903z"/>
					</g>
				</g>
			</g>
			<g clip-path="url(#SVGID_5_)">
				<defs>
					<path id="XMLID_10_" d="M319.671,905.096c19.414-87.984,4.156-156.25-4.834-176.158c-9.072-20.119-12.104-35.029-30.277-66.328
						c-18.164-31.286-34.295-110.32-33.533-150.57c0.752-40.24-0.428-129.425-0.428-129.425l-17.715-8.718
						c0,0-0.586,57.271-1.439,86.398c-1.031,35.01-2.979,54.193-2.979,54.193l-135.045-2.174c0,0-28.014-18.217-31.91-33.562
						c-10.613-41.808-15.205-45.269-26.059-68.42c-13.623-29.063-22.373-39.961-22.373-39.961l-17.748,7.567
						c0,0,15.857,7.227,31.441,72.311c8.447,35.312,36.91,68.301,31.564,125.293c-2.707,28.87-11.213,80.295-23.264,125.545
						c-7.486,28.126-16.346,53.871-26.029,70.335c-24.973,42.484-61.529,34.637-61.529,34.637l14.035,39.646
						c0,0,14.301,3.807,18.969,11.781c4.666,7.979,14.562,32.189,15.67,40.629c7.557,58.146-0.559,114.686,0,145.836
						c1.51,85.703-31.949,204.311-31.949,204.311s96.418,54.283,131.334,35.248c10.641-5.797,19.619-9.773,27.375-12.402
						c36.678-12.445,45.992,5.039,73.84,0.615c33.738-5.361,41.576-51.744,79.451-58.951c29.525-5.604,40.873-48.082,40.873-48.082
						s-1.551-39.33-2.637-55.396c-1.084-16.086-5.789-115.74-2.66-141.369C315.599,936.877,313.325,937.618,319.671,905.096z"/>
				</defs>
				<linearGradient id="XMLID_19_" gradientUnits="userSpaceOnUse" x1="-52.4854" y1="828.9663" x2="329.0698" y2="828.9663">
					<stop  offset="8.090200e-04" style="stop-color:#2CCFE9;stop-opacity:0.9"/>
					<stop  offset="0.4102" style="stop-color:#1A93D9;stop-opacity:0.8557"/>
					<stop  offset="0.7517" style="stop-color:#0D67CD;stop-opacity:0.8187"/>
					<stop  offset="0.9244" style="stop-color:#0856C9;stop-opacity:0.8"/>
				</linearGradient>
				<use xlink:href="#XMLID_10_"  overflow="visible" fill="url(#XMLID_19_)"/>
				<clipPath id="XMLID_20_">
					<use xlink:href="#XMLID_10_"  overflow="visible"/>
				</clipPath>
				<linearGradient id="SVGID_9_" gradientUnits="userSpaceOnUse" x1="55.8364" y1="1179.2246" x2="55.8364" y2="605.7178">
					<stop  offset="3.986000e-04" style="stop-color:#2CC397"/>
					<stop  offset="0.5484" style="stop-color:#25A98F"/>
					<stop  offset="1" style="stop-color:#20998A"/>
				</linearGradient>
				<path opacity="0.8" clip-path="url(#XMLID_20_)" fill="url(#SVGID_9_)" d="M-5.612,1105.782
					c-7.078-12.672-11.734-223.746-11.734-223.746L-93.7,800.59l34.988-48.553c0,0,82.857-188.34,185.789-137.662
					c102.947,50.677,90.84,107.334,40.879,210.191c-15.797,32.533-59.043,102.865-21.91,174.674
					C179.478,1063.887,100.64,1296.102-5.612,1105.782z"/>
				<g clip-path="url(#XMLID_20_)">
					<g>
						<linearGradient id="SVGID_10_" gradientUnits="userSpaceOnUse" x1="29.9185" y1="817.4409" x2="29.9184" y2="381.1569">
							<stop  offset="0" style="stop-color:#20998A"/>
							<stop  offset="0.2141" style="stop-color:#249B87"/>
							<stop  offset="0.4225" style="stop-color:#30A07E"/>
							<stop  offset="0.6285" style="stop-color:#43A86E"/>
							<stop  offset="0.8318" style="stop-color:#5EB459"/>
							<stop  offset="1" style="stop-color:#7BC042"/>
						</linearGradient>
						<path fill="none" stroke="url(#SVGID_10_)" stroke-width="1.5022" stroke-miterlimit="10" d="M29.396,381.336
							c0,0,0.373,1.517,1.044,4.38"/>
						<linearGradient id="SVGID_11_" gradientUnits="userSpaceOnUse" x1="17.7935" y1="817.0542" x2="17.7934" y2="380.7709">
							<stop  offset="0" style="stop-color:#20998A"/>
							<stop  offset="0.2141" style="stop-color:#249B87"/>
							<stop  offset="0.4225" style="stop-color:#30A07E"/>
							<stop  offset="0.6285" style="stop-color:#43A86E"/>
							<stop  offset="0.8318" style="stop-color:#5EB459"/>
							<stop  offset="1" style="stop-color:#7BC042"/>
						</linearGradient>
						
							<path fill="none" stroke="url(#SVGID_11_)" stroke-width="1.5022" stroke-miterlimit="10" stroke-dasharray="8.9754,8.9754" d="
							M32.445,394.46c3.525,15.672,9.627,44.292,15.716,79.908c9.342,54.805,26.654,103.367,12.402,183.605
							c-13.561,76.345-34.381,152.318-91.632,158.333"/>
					</g>
				</g>
				<g clip-path="url(#XMLID_20_)">
					<g>
						<linearGradient id="SVGID_12_" gradientUnits="userSpaceOnUse" x1="244.1245" y1="1167.2163" x2="244.1245" y2="388.0032">
							<stop  offset="0" style="stop-color:#20998A"/>
							<stop  offset="0.2141" style="stop-color:#249B87"/>
							<stop  offset="0.4225" style="stop-color:#30A07E"/>
							<stop  offset="0.6285" style="stop-color:#43A86E"/>
							<stop  offset="0.8318" style="stop-color:#5EB459"/>
							<stop  offset="1" style="stop-color:#7BC042"/>
						</linearGradient>
						<path fill="none" stroke="url(#SVGID_12_)" stroke-width="1.5022" stroke-miterlimit="10" d="M243.956,388.069
							c0,0,0.135,1.554,0.336,4.489"/>
						<linearGradient id="SVGID_13_" gradientUnits="userSpaceOnUse" x1="282.0142" y1="1167.2168" x2="282.0141" y2="388.0037">
							<stop  offset="0" style="stop-color:#20998A"/>
							<stop  offset="0.2141" style="stop-color:#249B87"/>
							<stop  offset="0.4225" style="stop-color:#30A07E"/>
							<stop  offset="0.6285" style="stop-color:#43A86E"/>
							<stop  offset="0.8318" style="stop-color:#5EB459"/>
							<stop  offset="1" style="stop-color:#7BC042"/>
						</linearGradient>
						
							<path fill="none" stroke="url(#SVGID_13_)" stroke-width="1.5022" stroke-miterlimit="10" stroke-dasharray="9.0189,9.0189" d="
							M244.83,401.559c0.866,16.519,1.866,47.057,0.37,85.164c-2.16,55.538-7.561,95.399,37.096,187.819
							c35.537,73.542,45.42,128.189,32.541,210.917c0,0-3.021,15.648-9.832,48.441c-6.818,32.791-3.033,128.938-0.762,140.117
							c1.808,8.879,4.572,62.547,5.629,84.158"/>
					</g>
				</g>
			</g>
			<g clip-path="url(#SVGID_5_)">
				<linearGradient id="SVGID_14_" gradientUnits="userSpaceOnUse" x1="204.9165" y1="465.0981" x2="231.2136" y2="426.1111">
					<stop  offset="0" style="stop-color:#51BDE7"/>
					<stop  offset="0.1697" style="stop-color:#56BFE8"/>
					<stop  offset="0.3609" style="stop-color:#63C5EB"/>
					<stop  offset="0.5627" style="stop-color:#7AD0F0"/>
					<stop  offset="0.7718" style="stop-color:#99DEF6"/>
					<stop  offset="0.9846" style="stop-color:#C2F1FE"/>
					<stop  offset="0.9963" style="stop-color:#C4F2FF"/>
				</linearGradient>
				<path fill="url(#SVGID_14_)" d="M203.104,426.604c4.221-1.038,6.279,1.326,22.029,2.16c15.764,0.846,12.107,3.758,16.496,5.417
					c7.951,3.007,5.678,3.683,6.531,5.373c0.842,1.668-0.854,8.794-7.236,10.483c-6.393,1.668-11.17,5.668-18.404,4.83
					c-7.236-0.843-7.801,0.825-12.236-2.699c-4.258,1.668-12.791,7.922-12.791,7.922s2.904-22.078,5.025-27.104
					C202.519,432.987,198.882,427.642,203.104,426.604z"/>
				<g>
					<g enable-background="new    ">
						<g>
							
								<linearGradient id="SVGID_15_" gradientUnits="userSpaceOnUse" x1="12526.624" y1="1405.3315" x2="12592.4414" y2="1291.332" gradientTransform="matrix(-0.989 -0.1481 -0.1481 0.989 12915.8975 968.1968)">
								<stop  offset="0" style="stop-color:#20998A"/>
								<stop  offset="0.0441" style="stop-color:#219B90"/>
								<stop  offset="0.4634" style="stop-color:#27ADC2"/>
								<stop  offset="0.7811" style="stop-color:#2BB8E1"/>
								<stop  offset="0.9579" style="stop-color:#2CBCED"/>
							</linearGradient>
							<path fill="url(#SVGID_15_)" d="M304.409,369.834c-8.707-1.15-11.193,2.132-13.301,4.376
								c-2.098,2.207-103.355,113.44-108.682,119.297c-0.232,0.295-4.793,5.787,3.285,6.871
								c8.061,1.079,91.678,11.994,100.527,13.174c8.852,1.178,12.289-4.361,12.479-4.646
								c5.129-5.643,102.641-112.819,108.004-118.572c4.693-5.019,0.684-6.984-4.082-7.624
								C399.95,382.354,315.349,371.298,304.409,369.834z"/>
						</g>
						
							<linearGradient id="SVGID_16_" gradientUnits="userSpaceOnUse" x1="12554.9131" y1="1358.958" x2="12596.8262" y2="1286.3619" gradientTransform="matrix(-0.989 -0.1481 -0.1481 0.989 12915.8975 968.1968)">
							<stop  offset="0" style="stop-color:#08B3A6"/>
							<stop  offset="0.006" style="stop-color:#08B4A7"/>
							<stop  offset="0.4446" style="stop-color:#22DCC8"/>
							<stop  offset="0.791" style="stop-color:#31F6DD"/>
							<stop  offset="1" style="stop-color:#37FFE5"/>
						</linearGradient>
						<path fill="url(#SVGID_16_)" d="M176.659,489.72c5.332-5.854,106.574-117.083,108.682-119.312
							c2.104-2.225,4.824-7.031,13.533-5.861c10.928,1.457,98.605,12.949,101.289,13.32c2.4,0.316,4.627,0.984,5.611,2.207
							c0.508,0.613,1.01,1.523,1.383,2.207c0.564,1.012,1.01,2.598,1.408,3.1c-0.992-1.213-3.516-2.354-5.926-2.671
							c-2.689-0.354-87.291-11.411-98.23-12.875c-8.707-1.15-11.193,2.132-13.301,4.376
							c-2.098,2.207-103.355,113.44-108.682,119.297c-0.166,0.2-2.566,3.098-0.928,5.1c-0.9-1.112-3.865-4.062-4.773-5.185
							C175.089,491.409,176.493,489.927,176.659,489.72z"/>
					</g>
				</g>
				<g>
					<linearGradient id="SVGID_17_" gradientUnits="userSpaceOnUse" x1="96.8306" y1="502.1416" x2="262.4092" y2="502.1416">
						<stop  offset="0.0037" style="stop-color:#C4F2FF"/>
						<stop  offset="0.0154" style="stop-color:#C2F1FE"/>
						<stop  offset="0.2282" style="stop-color:#99DEF6"/>
						<stop  offset="0.4373" style="stop-color:#7AD0F0"/>
						<stop  offset="0.6391" style="stop-color:#63C5EB"/>
						<stop  offset="0.8303" style="stop-color:#56BFE8"/>
						<stop  offset="1" style="stop-color:#51BDE7"/>
					</linearGradient>
					<path fill="url(#SVGID_17_)" d="M140.155,512.485l22.318-41.218c0,0,29.527-45.09,41.678-45.09
						c3.74,0,7.867,17.534,8.666,18.292c-2.699,4.778-1.477,10.597-5.705,19.964c-5.854,12.966,12.689,12.577,20.053,17.866
						c18.732,13.414,35.244,11.17,35.244,18.348c0,7.189-5.271,35.475-5.271,35.475s-26.389,14.543-55.723,16.418
						c-12.373,0.787-55.322,25.565-55.322,25.565s-42.098-13.543-48.971-26.308C92.651,543.54,141.122,519.081,140.155,512.485z"/>
					<linearGradient id="SVGID_18_" gradientUnits="userSpaceOnUse" x1="258.8555" y1="539.2915" x2="280.1894" y2="507.6627">
						<stop  offset="0" style="stop-color:#51BDE7"/>
						<stop  offset="0.1697" style="stop-color:#56BFE8"/>
						<stop  offset="0.3609" style="stop-color:#63C5EB"/>
						<stop  offset="0.5627" style="stop-color:#7AD0F0"/>
						<stop  offset="0.7718" style="stop-color:#99DEF6"/>
						<stop  offset="0.9846" style="stop-color:#C2F1FE"/>
						<stop  offset="0.9963" style="stop-color:#C4F2FF"/>
					</linearGradient>
					<path fill="url(#SVGID_18_)" d="M255.396,536.956c0,0,10.641-3.73,24.59-13.053c13.963-9.324,9.973-7.468,9.314-9.954
						c-0.668-2.485-21.947,3.728-24.6,3.728c-2.662,0-5.521-1.053-9.982,4.363C253.142,523.969,248.743,532.614,255.396,536.956z"/>
					<linearGradient id="SVGID_19_" gradientUnits="userSpaceOnUse" x1="267.252" y1="532.3843" x2="302.3985" y2="480.2774">
						<stop  offset="0" style="stop-color:#51BDE7"/>
						<stop  offset="0.1697" style="stop-color:#56BFE8"/>
						<stop  offset="0.3609" style="stop-color:#63C5EB"/>
						<stop  offset="0.5627" style="stop-color:#7AD0F0"/>
						<stop  offset="0.7718" style="stop-color:#99DEF6"/>
						<stop  offset="0.9846" style="stop-color:#C2F1FE"/>
						<stop  offset="0.9963" style="stop-color:#C4F2FF"/>
					</linearGradient>
					<path fill="url(#SVGID_19_)" d="M252.64,522.207c0,0,23.945,2.003,33.711,1.157c9.758-0.834,15.119-0.414,22.932-2.929
						c7.799-2.515,9.75-7.542,10.721-11.329c0.975-3.766-3.354-19.217-3.354-19.217l-9.549,10.445c0,0-38.551-0.496-48.803-3.01
						C248.058,494.805,240.452,517.595,252.64,522.207z"/>
					<linearGradient id="SVGID_20_" gradientUnits="userSpaceOnUse" x1="250.5015" y1="512.3208" x2="301.5655" y2="436.6153">
						<stop  offset="0" style="stop-color:#51BDE7"/>
						<stop  offset="0.1697" style="stop-color:#56BFE8"/>
						<stop  offset="0.3609" style="stop-color:#63C5EB"/>
						<stop  offset="0.5627" style="stop-color:#7AD0F0"/>
						<stop  offset="0.7718" style="stop-color:#99DEF6"/>
						<stop  offset="0.9846" style="stop-color:#C2F1FE"/>
						<stop  offset="0.9963" style="stop-color:#C4F2FF"/>
					</linearGradient>
					<path fill="url(#SVGID_20_)" d="M225.2,481.017c0,0,29.713-10.125,40.074-12.426c10.369-2.32,29.352-7.07,36.605-11.588
						c7.43-4.62,21.049-2.953,23.189-2.627c5.076,0.771,9.195,3.398,8.646,7.079c-0.352,2.357-5.531,5.445-7.672,6.976
						c-0.574,0.416-24.055,13.477-24.055,13.477s-19.75,8.854-25.424,10.402c-5.668,1.529-22.088,5.962-26.014,7.504
						c-3.906,1.549-22.279,0.201-24.822-4.805C223.187,489.999,214.839,484.108,225.2,481.017z"/>
				</g>
			</g>
			<g clip-path="url(#SVGID_5_)">
				
					<linearGradient id="SVGID_21_" gradientUnits="userSpaceOnUse" x1="-543.5723" y1="933.3833" x2="-487.9487" y2="933.3833" gradientTransform="matrix(0.9692 -0.2462 0.2462 0.9692 765.226 -747.0417)">
					<stop  offset="0.0037" style="stop-color:#C4F2FF"/>
					<stop  offset="0.0406" style="stop-color:#BFF1FF;stop-opacity:0.9963"/>
					<stop  offset="0.4939" style="stop-color:#81E5F9;stop-opacity:0.9508"/>
					<stop  offset="0.8262" style="stop-color:#5BDEF6;stop-opacity:0.9174"/>
					<stop  offset="1" style="stop-color:#4CDBF5;stop-opacity:0.9"/>
				</linearGradient>
				<path fill="url(#SVGID_21_)" d="M468.222,287.179c0,0,13.211-12.577,27.412-17.198c14.191-4.636,15.139-8.979,22.16-1.536
					c7.014,7.436,2.191,8.662-8.85,17.625c-11.057,8.959-27.16,18.17-27.16,18.17S464.392,292.257,468.222,287.179z"/>
				
					<linearGradient id="SVGID_22_" gradientUnits="userSpaceOnUse" x1="-590.2964" y1="983.4712" x2="-497.5322" y2="983.4712" gradientTransform="matrix(0.9692 -0.2462 0.2462 0.9692 765.226 -747.0417)">
					<stop  offset="0.0037" style="stop-color:#C4F2FF"/>
					<stop  offset="0.0406" style="stop-color:#BFF0FF;stop-opacity:0.9963"/>
					<stop  offset="0.4939" style="stop-color:#81D9F9;stop-opacity:0.9508"/>
					<stop  offset="0.8262" style="stop-color:#5BCAF6;stop-opacity:0.9174"/>
					<stop  offset="1" style="stop-color:#4CC5F5;stop-opacity:0.9"/>
				</linearGradient>
				<path fill="url(#SVGID_22_)" d="M456.46,375.251c0,0,12.652,15.229,28.516,5.047c15.861-10.176,43.709-37.747,43.709-37.747
					s-12.818-14.167-21.52-20.157c-8.691-5.991-19.609-24.738-29.723-24.23c-10.119,0.521-18.227,25.13-25.178,34.083
					c-6.955,8.94-19.746,12.364-16.082,22.71C439.825,365.308,451.394,371.407,456.46,375.251z"/>
				
					<linearGradient id="SVGID_23_" gradientUnits="userSpaceOnUse" x1="-594.1577" y1="936.4263" x2="-536.0922" y2="951.1763" gradientTransform="matrix(0.9692 -0.2462 0.2462 0.9692 765.226 -747.0417)">
					<stop  offset="0.0037" style="stop-color:#C4F2FF"/>
					<stop  offset="0.0406" style="stop-color:#BFF0FF"/>
					<stop  offset="0.4939" style="stop-color:#81D9F9"/>
					<stop  offset="0.8262" style="stop-color:#5BCAF6"/>
					<stop  offset="1" style="stop-color:#4CC5F5"/>
				</linearGradient>
				<path fill="url(#SVGID_23_)" d="M426.497,335.708c0,0-1.27-17.099,3.535-22.422c4.797-5.316,8.848-17.625,5.436-27.004
					c-3.404-9.389-8.525-25.5-8.525-25.5l-7.029-11.549c0,0,3.33-11.098,12.744-6.311c9.414,4.777,18.627,20.891,18.627,20.891
					l11.871,18.506c0,0,12.582,13.211,14.297,19.945c1.717,6.746,5.203,36.603-1.984,48.682
					c-7.18,12.078-20.982,22.969-24.795,20.678C439.802,365.101,428.966,349.435,426.497,335.708z"/>
				
					<linearGradient id="SVGID_24_" gradientUnits="userSpaceOnUse" x1="-521.2964" y1="1005.335" x2="-492.7189" y2="976.7574" gradientTransform="matrix(0.9692 -0.2462 0.2462 0.9692 765.226 -747.0417)">
					<stop  offset="0.0037" style="stop-color:#C4F2FF"/>
					<stop  offset="0.2109" style="stop-color:#9DE3FC;stop-opacity:0.9792"/>
					<stop  offset="0.4377" style="stop-color:#7AD6F9;stop-opacity:0.9564"/>
					<stop  offset="0.6515" style="stop-color:#61CDF7;stop-opacity:0.935"/>
					<stop  offset="0.8449" style="stop-color:#51C7F5;stop-opacity:0.9156"/>
					<stop  offset="1" style="stop-color:#4CC5F5;stop-opacity:0.9"/>
				</linearGradient>
				<path fill="url(#SVGID_24_)" d="M538.776,328.422c0,0,2.896,9.815-2.16,14.157c-5.047,4.361-23.42,7.902-29.229,9.238
					c-10.242,2.357-19.045-9.74-8.945-14.361c10.104-4.607,29.012-11.925,29.012-11.925S536.347,322.896,538.776,328.422z"/>
				
					<linearGradient id="SVGID_25_" gradientUnits="userSpaceOnUse" x1="-530.1929" y1="995.2051" x2="-491.9264" y2="956.9386" gradientTransform="matrix(0.9692 -0.2462 0.2462 0.9692 765.226 -747.0417)">
					<stop  offset="0.0037" style="stop-color:#C4F2FF"/>
					<stop  offset="0.2109" style="stop-color:#9DE3FC;stop-opacity:0.9792"/>
					<stop  offset="0.4377" style="stop-color:#7AD6F9;stop-opacity:0.9564"/>
					<stop  offset="0.6515" style="stop-color:#61CDF7;stop-opacity:0.935"/>
					<stop  offset="0.8449" style="stop-color:#51C7F5;stop-opacity:0.9156"/>
					<stop  offset="1" style="stop-color:#4CC5F5;stop-opacity:0.9"/>
				</linearGradient>
				<path fill="url(#SVGID_25_)" d="M535.319,310.038c0,0,4.768,5.706-0.752,12.227c-5.521,6.53-16.717,12.373-26.096,15.787
					c-9.387,3.404-21.057,7.885-23.496,2.357c-2.43-5.539-6.309-10.891,12.689-20.854c18.998-9.943,16.326-8.564,21.613-11.949
					C524.565,304.214,531.819,303.255,535.319,310.038z"/>
				
					<linearGradient id="SVGID_26_" gradientUnits="userSpaceOnUse" x1="-531.3984" y1="976.5132" x2="-492.042" y2="937.1567" gradientTransform="matrix(0.9692 -0.2462 0.2462 0.9692 765.226 -747.0417)">
					<stop  offset="0.0037" style="stop-color:#C4F2FF"/>
					<stop  offset="0.2109" style="stop-color:#9DE3FC;stop-opacity:0.9792"/>
					<stop  offset="0.4377" style="stop-color:#7AD6F9;stop-opacity:0.9564"/>
					<stop  offset="0.6515" style="stop-color:#61CDF7;stop-opacity:0.935"/>
					<stop  offset="0.8449" style="stop-color:#51C7F5;stop-opacity:0.9156"/>
					<stop  offset="1" style="stop-color:#4CC5F5;stop-opacity:0.9"/>
				</linearGradient>
				<path fill="url(#SVGID_26_)" d="M527.024,288.655c0,0,8.701,7.896-2.486,16.895c-7.568,6.081-9.377,8.433-19.572,13.301
					c-9.137,4.38-15.146,8.979-20.688,7.308c-5.545-1.667-10.648-9.599,0.66-17.593c11.287-7.988,23.533-15.578,28.041-20.076
					C519.13,282.357,522.425,282.636,527.024,288.655z"/>
				
					<linearGradient id="SVGID_28_" gradientUnits="userSpaceOnUse" x1="-525.2539" y1="957.5352" x2="-495.2178" y2="918.04" gradientTransform="matrix(0.9692 -0.2462 0.2462 0.9692 765.226 -747.0417)">
					<stop  offset="0.0037" style="stop-color:#C4F2FF"/>
					<stop  offset="0.2109" style="stop-color:#9DE3FC;stop-opacity:0.9792"/>
					<stop  offset="0.4377" style="stop-color:#7AD6F9;stop-opacity:0.9564"/>
					<stop  offset="0.6515" style="stop-color:#61CDF7;stop-opacity:0.935"/>
					<stop  offset="0.8449" style="stop-color:#51C7F5;stop-opacity:0.9156"/>
					<stop  offset="1" style="stop-color:#4CC5F5;stop-opacity:0.9"/>
				</linearGradient>
				<path fill="url(#SVGID_28_)" d="M514.021,289.906c-5.891,5.43-14.025,12.599-22.199,16.718
					c-8.182,4.136-15.584-4.047-9.352-11.78c6.236-7.737,9.604-10.64,16.076-17.411c6.486-6.762,8.906-10.502,14.693-10.688
					c5.299-0.156,3.58,0.771,4.555,1.699C524.343,274.61,522.638,281.94,514.021,289.906z"/>
			</g>
		</g>
		<g>
			<g>
				<defs>
					<path id="XMLID_8_" d="M57.892,243.954c0,0,4.891,48.162,44.027,69.031c39.117,20.873,50.535,25.688,73.357,25.688
						c22.818,0,27.719-9.627,40.77-19.268c13.031-9.627,32.598-35.312,37.494-57.789c4.887-22.468-14.676-54.585-14.676-70.629
						c0-16.058,9.732-52.773,8.098-65.621c-1.633-12.84-18.689-45.726-36.715-57.3C150.692,29.821,99.628,48.555,62.124,74.233
						c-37.496,25.684-43.098,42.449-37.795,85.956C28.228,192.097,57.892,227.903,57.892,243.954z"/>
				</defs>
				<linearGradient id="XMLID_21_" gradientUnits="userSpaceOnUse" x1="22.6235" y1="192.4917" x2="254.3237" y2="192.4917">
					<stop  offset="0.0037" style="stop-color:#C4F2FF"/>
					<stop  offset="0.3516" style="stop-color:#A4F7FB;stop-opacity:0.9651"/>
					<stop  offset="0.77" style="stop-color:#83FDF7;stop-opacity:0.9231"/>
					<stop  offset="1" style="stop-color:#77FFF5;stop-opacity:0.9"/>
				</linearGradient>
				<use xlink:href="#XMLID_8_"  overflow="visible" fill="url(#XMLID_21_)"/>
				<clipPath id="XMLID_22_">
					<use xlink:href="#XMLID_8_"  overflow="visible"/>
				</clipPath>
				<path clip-path="url(#XMLID_22_)" fill="none" stroke="#3C231C" stroke-width="1.3352" stroke-miterlimit="10" d="
					M45.14,318.509c0,0,4.607-9.648-5.186-11.354c-9.797-1.699-10.957,6.241-19.602,9.655c-8.646,3.396-23.635,11.913-41.504,17.588
					c-17.865,5.677-49.572,22.709-74.367,42.568c-24.787,19.873-28.822,29.51-43.227,40.297
					c-14.418,10.787-18.463,27.822-29.408,37.469c-10.945,9.646-16.139,38.023-17.289,43.7c-1.152,5.684,14.404-10.781,51.883,5.11
					c37.475,15.9,68.598,68.105,68.598,68.105s1.725-9.072,20.74-24.396c19.035-15.322,15-21.567,32.867-24.973
					c17.875-3.41,28.246-5.109,28.246-5.109s26.512-53.369-0.574-100.475c-27.098-47.102-57.078-60.165-67.447-61.293"/>
				<linearGradient id="SVGID_29_" gradientUnits="userSpaceOnUse" x1="14.395" y1="116.104" x2="239.2451" y2="116.104">
					<stop  offset="0" style="stop-color:#4CD0D8"/>
					<stop  offset="1" style="stop-color:#1F8FCE"/>
				</linearGradient>
				<path clip-path="url(#XMLID_22_)" fill="url(#SVGID_29_)" d="M57.134,195.068c0,0,16.295-28.888,21.195-49.757
					c4.887-20.873,16.299-43.344,16.299-43.344s21.186-8.031,42.383-6.436c21.205,1.613,55.436,8.034,66.855,6.436
					c11.408-1.611,35.379,0.057,35.379,0.057S203.134,38.806,164.017,37.2C124.876,35.589,52.948,66.173,26.862,95.067
					c-26.082,28.907-3.145,87.976-3.145,87.976S52.233,188.647,57.134,195.068z"/>
				<g opacity="0.8" clip-path="url(#XMLID_22_)">
					<g>
						<linearGradient id="SVGID_30_" gradientUnits="userSpaceOnUse" x1="430.1699" y1="481.4092" x2="430.1699" y2="481.4092">
							<stop  offset="0.5592" style="stop-color:#77FFF5;stop-opacity:0.9"/>
							<stop  offset="0.6601" style="stop-color:#83FDF7;stop-opacity:0.9231"/>
							<stop  offset="0.8437" style="stop-color:#A4F7FB;stop-opacity:0.9651"/>
							<stop  offset="0.9963" style="stop-color:#C4F2FF"/>
						</linearGradient>
						<path fill="none" stroke="url(#SVGID_30_)" stroke-width="2.922" stroke-miterlimit="10" d="M430.171,481.409"/>
					</g>
				</g>
			</g>
			<linearGradient id="SVGID_31_" gradientUnits="userSpaceOnUse" x1="16.0015" y1="215.2729" x2="72.1836" y2="215.2729">
				<stop  offset="0" style="stop-color:#77FFF5;stop-opacity:0.9"/>
				<stop  offset="0" style="stop-color:#78FFF5;stop-opacity:0.9015"/>
				<stop  offset="0.2486" style="stop-color:#86FDF7;stop-opacity:0.926"/>
				<stop  offset="0.7166" style="stop-color:#ABF6FC;stop-opacity:0.9721"/>
				<stop  offset="1" style="stop-color:#C4F2FF"/>
			</linearGradient>
			<path fill="url(#SVGID_31_)" d="M62.782,189.369c0,0-19.574-11.224-29.352-8.022c-9.777,3.211-27.717,20.873-9.777,41.735
				c17.932,20.872,30.973,32.114,44.018,24.089C80.722,239.148,61.149,207.031,62.782,189.369z"/>
		</g>
	</g>
	<g>
		<defs>
			<path id="XMLID_7_" d="M116.632,279.724c24.221,37.086,36.621,59.238,59.449,59.238c22.82,0,27.711-9.631,40.762-19.258
				c13.035-9.641,32.596-35.324,37.496-57.799c4.879-22.471-14.678-54.572-14.678-70.643c0-16.048,3.129-35.594,6.643-48.053
				c4.963-17.529,0.621-25.926-8.617-41.675c-16.697-0.345-27.17,1.213-44.941,0.526c-13.676-0.545-11.023-0.881-49.408-5.963
				c-44.314,40.729-11.779,54.2-9.861,95.889C134.952,223.973,92.567,242.857,116.632,279.724z"/>
		</defs>
		<use xlink:href="#XMLID_7_"  overflow="visible" fill="#80E0FF"/>
		<clipPath id="XMLID_23_">
			<use xlink:href="#XMLID_7_"  overflow="visible"/>
		</clipPath>
		<path clip-path="url(#XMLID_23_)" fill="#80E0FF" stroke="#3C231C" stroke-width="1.3352" stroke-miterlimit="10" d="
			M45.944,318.794c0,0,4.611-9.646-5.193-11.354c-9.797-1.706-10.957,6.24-19.6,9.646c-8.641,3.417-23.637,11.922-41.504,17.599
			c-17.875,5.678-49.572,22.697-74.359,42.57c-24.795,19.869-28.832,29.515-43.246,40.296
			c-14.406,10.78-18.439,27.819-29.387,37.478c-10.967,9.637-16.152,38.014-17.303,43.688c-1.15,5.687,14.418-10.778,51.883,5.113
			c37.469,15.891,68.6,68.106,68.6,68.106s1.727-9.082,20.75-24.406c19.027-15.326,14.984-21.559,32.859-24.973
			c17.863-3.404,28.246-5.1,28.246-5.1s26.521-53.357-0.568-100.463c-27.094-47.117-57.076-60.168-67.457-61.309"/>
	</g>
</g>
<rect id="_x3C_Slice_x3E__17_" x="-104.913" y="-104" fill="none" width="808" height="784"/>
</svg>
